<svg xmlns="http://www.w3.org/2000/svg" xmlns:xlink="http://www.w3.org/1999/xlink" style="margin:auto;background:transparent;display:block;z-index:1;position:relative" width="1889" height="1412" preserveAspectRatio="xMidYMid" viewBox="0 0 1889 1412">
<g transform="translate(944.5,706) scale(1,1) translate(-944.5,-706)"><g transform="translate(1033.3853019293367,-234.30827556760903) scale(100)" opacity="0.13">
  <path d="M7.9338 0 C7.9338 0.8500499999999998 9.363398847482014 5.75218788509837 8.863751993770798 6.439892781166794 S3.2601246216486532 7.282812292914064 2.451679029971958 7.545492188982489 S-2.577206402094103 10.682645299901385 -3.385651993770798 10.419965403832961 S-5.91893217626074 5.351075530706448 -6.418579029971957 4.663370634638024 S-10.956199999999999 0.8500500000000011 -10.956199999999999 1.341747526081823e-15 S-6.918225883683175 -3.9756657385695986 -6.4185790299719585 -4.663370634638023 S-4.194097585447495 -10.157285507764536 -3.3856519937708 -10.41996540383296 S1.6432334382952614 -7.808172085050913 2.4516790299719564 -7.5454921889824895 S8.36410514005958 -7.12759767723522 8.863751993770798 -6.439892781166796 S7.9338 -0.8500500000000017 7.9338 -1.943220555015054e-15" fill="#ff00ff" stroke-width="0">
    <animateTransform attributeName="transform" type="rotate" dur="33.333333333333336s" repeatCount="indefinite" values="0;72"></animateTransform>
  </path>
</g><g transform="translate(1051.162362315204,-422.36993068113065) scale(100)" opacity="0.13">
  <path d="M9.520559999999998 0 C9.520559999999998 1.0200599999999995 11.236078616978416 6.902625462118042 10.636502392524957 7.727871337400151 S3.912149545978383 8.739374751496877 2.942014835966349 9.054590626778985 S-3.092647682512922 12.819174359881659 -4.062782392524956 12.50395848459955 S-7.102718611512887 6.421290636847736 -7.702294835966347 5.5960447615656275 S-13.147439999999996 1.020060000000001 -13.147439999999996 1.6100970312981872e-15 S-8.301871060419808 -4.770798886283517 -7.702294835966349 -5.596044761565626 S-5.032917102536993 -12.18874260931744 -4.0627823925249595 -12.503958484599549 S1.9718801259543133 -9.369806502061094 2.942014835966347 -9.054590626778985 S10.036926168071496 -8.553117212682261 10.636502392524955 -7.7278713374001535 S9.520559999999998 -1.020060000000002 9.520559999999998 -2.3318646660180644e-15" fill="#00c8ff" stroke-width="0">
    <animateTransform attributeName="transform" type="rotate" dur="16.666666666666668s" repeatCount="indefinite" values="0;72"></animateTransform>
  </path>
</g><g transform="translate(1093.8273072412858,-873.717902953583) scale(100)" opacity="0.13">
  <path d="M13.328783999999997 0 C13.328783999999997 1.4280839999999992 15.730510063769785 9.66367564696526 14.89110334953494 10.819019872360212 S5.477009364369736 12.235124652095626 4.1188207703528885 12.676426877490579 S-4.329706755518092 17.946844103834326 -5.68789534953494 17.505541878439374 S-9.943806056118042 8.98980689158683 -10.783212770352886 7.834462666191879 S-18.406415999999997 1.4280840000000015 -18.406415999999997 2.2541358438174623e-15 S-11.622619484587732 -6.679118440796924 -10.783212770352888 -7.834462666191876 S-7.046083943551791 -17.064239653044417 -5.687895349534943 -17.50554187843937 S2.7606321763360384 -13.117729102885534 4.118820770352886 -12.67642687749058 S14.051696635300093 -11.974364097755169 14.891103349534937 -10.819019872360217 S13.328783999999997 -1.4280840000000026 13.328783999999997 -3.2646105324252904e-15" fill="#72fef7" stroke-width="0">
    <animateTransform attributeName="transform" type="rotate" dur="11.11111111111111s" repeatCount="indefinite" values="0;72"></animateTransform>
  </path>
</g></g>
</svg>